<mxfile host="Electron" agent="Mozilla/5.0 (Windows NT 10.0; Win64; x64) AppleWebKit/537.36 (KHTML, like Gecko) draw.io/22.0.0 Chrome/114.0.5735.289 Electron/25.8.3 Safari/537.36" modified="2025-03-27T00:14:31.238Z" etag="DfsmYKbMui4Ut6nNI334" version="22.0.0" type="device">
  <diagram name="Page-1" id="q5gKrhV2WKv8pvfnoQvh">
    <mxGraphModel dx="1618" dy="1992" grid="1" gridSize="10" guides="1" tooltips="1" connect="1" arrows="1" fold="1" page="1" pageScale="1" pageWidth="827" pageHeight="1169" math="0" shadow="0">
      <root>
        <mxCell id="0" />
        <mxCell id="1" parent="0" />
        <mxCell id="eEHk1LXyHGOw7zRqDb_v-57" value="Обновление статуса заказа" style="rounded=0;whiteSpace=wrap;html=1;verticalAlign=top;" vertex="1" parent="1">
          <mxGeometry x="85" y="624" width="1085" height="520" as="geometry" />
        </mxCell>
        <mxCell id="eEHk1LXyHGOw7zRqDb_v-56" value="Чтение дашборда заказов" style="rounded=0;whiteSpace=wrap;html=1;verticalAlign=top;" vertex="1" parent="1">
          <mxGeometry x="85" y="50" width="1085" height="520" as="geometry" />
        </mxCell>
        <mxCell id="eEHk1LXyHGOw7zRqDb_v-1" value="Actor" style="shape=umlActor;verticalLabelPosition=bottom;verticalAlign=top;html=1;outlineConnect=0;" vertex="1" parent="1">
          <mxGeometry x="150" y="140" width="30" height="60" as="geometry" />
        </mxCell>
        <mxCell id="eEHk1LXyHGOw7zRqDb_v-2" value="MES" style="rounded=0;whiteSpace=wrap;html=1;" vertex="1" parent="1">
          <mxGeometry x="400" y="140" width="120" height="60" as="geometry" />
        </mxCell>
        <mxCell id="eEHk1LXyHGOw7zRqDb_v-3" value="Redis" style="rounded=0;whiteSpace=wrap;html=1;" vertex="1" parent="1">
          <mxGeometry x="690" y="140" width="120" height="60" as="geometry" />
        </mxCell>
        <mxCell id="eEHk1LXyHGOw7zRqDb_v-4" value="DB" style="rounded=0;whiteSpace=wrap;html=1;" vertex="1" parent="1">
          <mxGeometry x="940" y="140" width="120" height="60" as="geometry" />
        </mxCell>
        <mxCell id="eEHk1LXyHGOw7zRqDb_v-5" value="" style="endArrow=none;html=1;rounded=0;" edge="1" parent="1">
          <mxGeometry width="50" height="50" relative="1" as="geometry">
            <mxPoint x="170" y="500" as="sourcePoint" />
            <mxPoint x="170" y="200" as="targetPoint" />
          </mxGeometry>
        </mxCell>
        <mxCell id="eEHk1LXyHGOw7zRqDb_v-6" value="" style="endArrow=none;html=1;rounded=0;" edge="1" parent="1">
          <mxGeometry width="50" height="50" relative="1" as="geometry">
            <mxPoint x="460" y="500" as="sourcePoint" />
            <mxPoint x="460" y="200" as="targetPoint" />
          </mxGeometry>
        </mxCell>
        <mxCell id="eEHk1LXyHGOw7zRqDb_v-7" value="" style="endArrow=none;html=1;rounded=0;" edge="1" parent="1">
          <mxGeometry width="50" height="50" relative="1" as="geometry">
            <mxPoint x="750" y="500" as="sourcePoint" />
            <mxPoint x="749.29" y="200" as="targetPoint" />
          </mxGeometry>
        </mxCell>
        <mxCell id="eEHk1LXyHGOw7zRqDb_v-8" value="" style="endArrow=none;html=1;rounded=0;" edge="1" parent="1">
          <mxGeometry width="50" height="50" relative="1" as="geometry">
            <mxPoint x="999" y="500" as="sourcePoint" />
            <mxPoint x="999.29" y="200" as="targetPoint" />
          </mxGeometry>
        </mxCell>
        <mxCell id="eEHk1LXyHGOw7zRqDb_v-9" value="" style="endArrow=classic;html=1;rounded=0;entryX=0;entryY=0.176;entryDx=0;entryDy=0;entryPerimeter=0;" edge="1" parent="1" target="eEHk1LXyHGOw7zRqDb_v-11">
          <mxGeometry width="50" height="50" relative="1" as="geometry">
            <mxPoint x="170" y="270" as="sourcePoint" />
            <mxPoint x="460" y="270" as="targetPoint" />
          </mxGeometry>
        </mxCell>
        <mxCell id="eEHk1LXyHGOw7zRqDb_v-10" value="Запрос дашборда заказов" style="text;html=1;align=center;verticalAlign=middle;resizable=0;points=[];autosize=1;strokeColor=none;fillColor=none;" vertex="1" parent="1">
          <mxGeometry x="180" y="238" width="170" height="30" as="geometry" />
        </mxCell>
        <mxCell id="eEHk1LXyHGOw7zRqDb_v-11" value="Обработка запроса получения дашборда заказа" style="rounded=0;whiteSpace=wrap;html=1;" vertex="1" parent="1">
          <mxGeometry x="400" y="240" width="120" height="170" as="geometry" />
        </mxCell>
        <mxCell id="eEHk1LXyHGOw7zRqDb_v-12" value="" style="endArrow=classic;html=1;rounded=0;exitX=1.003;exitY=0.176;exitDx=0;exitDy=0;exitPerimeter=0;" edge="1" parent="1" source="eEHk1LXyHGOw7zRqDb_v-11">
          <mxGeometry width="50" height="50" relative="1" as="geometry">
            <mxPoint x="560" y="290" as="sourcePoint" />
            <mxPoint x="750" y="268" as="targetPoint" />
          </mxGeometry>
        </mxCell>
        <mxCell id="eEHk1LXyHGOw7zRqDb_v-13" value="Запросы данных по ключу" style="text;html=1;align=center;verticalAlign=middle;resizable=0;points=[];autosize=1;strokeColor=none;fillColor=none;" vertex="1" parent="1">
          <mxGeometry x="540" y="238" width="170" height="30" as="geometry" />
        </mxCell>
        <mxCell id="eEHk1LXyHGOw7zRqDb_v-14" value="" style="endArrow=classic;html=1;rounded=0;" edge="1" parent="1">
          <mxGeometry width="50" height="50" relative="1" as="geometry">
            <mxPoint x="750" y="290" as="sourcePoint" />
            <mxPoint x="520" y="290" as="targetPoint" />
          </mxGeometry>
        </mxCell>
        <mxCell id="eEHk1LXyHGOw7zRqDb_v-15" value="массив заказов" style="text;html=1;align=center;verticalAlign=middle;resizable=0;points=[];autosize=1;strokeColor=none;fillColor=none;" vertex="1" parent="1">
          <mxGeometry x="555" y="268" width="110" height="30" as="geometry" />
        </mxCell>
        <mxCell id="eEHk1LXyHGOw7zRqDb_v-16" value="" style="endArrow=classic;html=1;rounded=0;exitX=-0.004;exitY=0.693;exitDx=0;exitDy=0;exitPerimeter=0;" edge="1" parent="1" source="eEHk1LXyHGOw7zRqDb_v-17">
          <mxGeometry width="50" height="50" relative="1" as="geometry">
            <mxPoint x="560" y="370" as="sourcePoint" />
            <mxPoint x="1000" y="320" as="targetPoint" />
          </mxGeometry>
        </mxCell>
        <mxCell id="eEHk1LXyHGOw7zRqDb_v-17" value="Если массив пустой, то запрос в БД" style="text;html=1;align=center;verticalAlign=middle;resizable=0;points=[];autosize=1;strokeColor=none;fillColor=none;" vertex="1" parent="1">
          <mxGeometry x="520" y="298" width="220" height="30" as="geometry" />
        </mxCell>
        <mxCell id="eEHk1LXyHGOw7zRqDb_v-18" value="" style="endArrow=classic;html=1;rounded=0;entryX=1.013;entryY=0.664;entryDx=0;entryDy=0;entryPerimeter=0;" edge="1" parent="1" target="eEHk1LXyHGOw7zRqDb_v-11">
          <mxGeometry width="50" height="50" relative="1" as="geometry">
            <mxPoint x="1000" y="353" as="sourcePoint" />
            <mxPoint x="810" y="380" as="targetPoint" />
          </mxGeometry>
        </mxCell>
        <mxCell id="eEHk1LXyHGOw7zRqDb_v-19" value="массив заказов" style="text;html=1;align=center;verticalAlign=middle;resizable=0;points=[];autosize=1;strokeColor=none;fillColor=none;" vertex="1" parent="1">
          <mxGeometry x="620" y="328" width="110" height="30" as="geometry" />
        </mxCell>
        <mxCell id="eEHk1LXyHGOw7zRqDb_v-22" value="" style="endArrow=classic;html=1;rounded=0;exitX=1;exitY=0.871;exitDx=0;exitDy=0;exitPerimeter=0;" edge="1" parent="1" source="eEHk1LXyHGOw7zRqDb_v-11">
          <mxGeometry width="50" height="50" relative="1" as="geometry">
            <mxPoint x="520" y="390" as="sourcePoint" />
            <mxPoint x="750" y="388" as="targetPoint" />
          </mxGeometry>
        </mxCell>
        <mxCell id="eEHk1LXyHGOw7zRqDb_v-23" value="сохранение данных по ключу" style="text;html=1;align=center;verticalAlign=middle;resizable=0;points=[];autosize=1;strokeColor=none;fillColor=none;" vertex="1" parent="1">
          <mxGeometry x="530" y="358" width="190" height="30" as="geometry" />
        </mxCell>
        <mxCell id="eEHk1LXyHGOw7zRqDb_v-26" value="" style="endArrow=classic;html=1;rounded=0;" edge="1" parent="1">
          <mxGeometry width="50" height="50" relative="1" as="geometry">
            <mxPoint x="400" y="402" as="sourcePoint" />
            <mxPoint x="170" y="402" as="targetPoint" />
          </mxGeometry>
        </mxCell>
        <mxCell id="eEHk1LXyHGOw7zRqDb_v-27" value="массив заказов" style="text;html=1;align=center;verticalAlign=middle;resizable=0;points=[];autosize=1;strokeColor=none;fillColor=none;" vertex="1" parent="1">
          <mxGeometry x="205" y="380" width="110" height="30" as="geometry" />
        </mxCell>
        <mxCell id="eEHk1LXyHGOw7zRqDb_v-28" value="Actor" style="shape=umlActor;verticalLabelPosition=bottom;verticalAlign=top;html=1;outlineConnect=0;" vertex="1" parent="1">
          <mxGeometry x="150" y="710" width="30" height="60" as="geometry" />
        </mxCell>
        <mxCell id="eEHk1LXyHGOw7zRqDb_v-29" value="MES" style="rounded=0;whiteSpace=wrap;html=1;" vertex="1" parent="1">
          <mxGeometry x="400" y="710" width="120" height="60" as="geometry" />
        </mxCell>
        <mxCell id="eEHk1LXyHGOw7zRqDb_v-30" value="Redis" style="rounded=0;whiteSpace=wrap;html=1;" vertex="1" parent="1">
          <mxGeometry x="690" y="710" width="120" height="60" as="geometry" />
        </mxCell>
        <mxCell id="eEHk1LXyHGOw7zRqDb_v-31" value="DB" style="rounded=0;whiteSpace=wrap;html=1;" vertex="1" parent="1">
          <mxGeometry x="940" y="710" width="120" height="60" as="geometry" />
        </mxCell>
        <mxCell id="eEHk1LXyHGOw7zRqDb_v-32" value="" style="endArrow=none;html=1;rounded=0;" edge="1" parent="1">
          <mxGeometry width="50" height="50" relative="1" as="geometry">
            <mxPoint x="170" y="1070" as="sourcePoint" />
            <mxPoint x="170" y="770" as="targetPoint" />
          </mxGeometry>
        </mxCell>
        <mxCell id="eEHk1LXyHGOw7zRqDb_v-33" value="" style="endArrow=none;html=1;rounded=0;" edge="1" parent="1">
          <mxGeometry width="50" height="50" relative="1" as="geometry">
            <mxPoint x="460" y="1070" as="sourcePoint" />
            <mxPoint x="460" y="770" as="targetPoint" />
          </mxGeometry>
        </mxCell>
        <mxCell id="eEHk1LXyHGOw7zRqDb_v-34" value="" style="endArrow=none;html=1;rounded=0;" edge="1" parent="1">
          <mxGeometry width="50" height="50" relative="1" as="geometry">
            <mxPoint x="750" y="1070" as="sourcePoint" />
            <mxPoint x="749.29" y="770" as="targetPoint" />
          </mxGeometry>
        </mxCell>
        <mxCell id="eEHk1LXyHGOw7zRqDb_v-35" value="" style="endArrow=none;html=1;rounded=0;" edge="1" parent="1">
          <mxGeometry width="50" height="50" relative="1" as="geometry">
            <mxPoint x="999" y="1070" as="sourcePoint" />
            <mxPoint x="999.29" y="770" as="targetPoint" />
          </mxGeometry>
        </mxCell>
        <mxCell id="eEHk1LXyHGOw7zRqDb_v-36" value="" style="endArrow=classic;html=1;rounded=0;entryX=0;entryY=0.176;entryDx=0;entryDy=0;entryPerimeter=0;" edge="1" parent="1" target="eEHk1LXyHGOw7zRqDb_v-38">
          <mxGeometry width="50" height="50" relative="1" as="geometry">
            <mxPoint x="170" y="840" as="sourcePoint" />
            <mxPoint x="460" y="840" as="targetPoint" />
          </mxGeometry>
        </mxCell>
        <mxCell id="eEHk1LXyHGOw7zRqDb_v-37" value="Запрос изменения статуса" style="text;html=1;align=center;verticalAlign=middle;resizable=0;points=[];autosize=1;strokeColor=none;fillColor=none;" vertex="1" parent="1">
          <mxGeometry x="180" y="808" width="170" height="30" as="geometry" />
        </mxCell>
        <mxCell id="eEHk1LXyHGOw7zRqDb_v-38" value="Обработка запроса изменения статуса заказа" style="rounded=0;whiteSpace=wrap;html=1;" vertex="1" parent="1">
          <mxGeometry x="400" y="810" width="120" height="170" as="geometry" />
        </mxCell>
        <mxCell id="eEHk1LXyHGOw7zRqDb_v-43" value="" style="endArrow=classic;html=1;rounded=0;exitX=1.008;exitY=0.296;exitDx=0;exitDy=0;exitPerimeter=0;" edge="1" parent="1" source="eEHk1LXyHGOw7zRqDb_v-38">
          <mxGeometry width="50" height="50" relative="1" as="geometry">
            <mxPoint x="520" y="865" as="sourcePoint" />
            <mxPoint x="1000" y="860" as="targetPoint" />
          </mxGeometry>
        </mxCell>
        <mxCell id="eEHk1LXyHGOw7zRqDb_v-44" value="Обновление статуса заказа" style="text;html=1;align=center;verticalAlign=middle;resizable=0;points=[];autosize=1;strokeColor=none;fillColor=none;" vertex="1" parent="1">
          <mxGeometry x="540" y="830" width="180" height="30" as="geometry" />
        </mxCell>
        <mxCell id="eEHk1LXyHGOw7zRqDb_v-45" value="" style="endArrow=classic;html=1;rounded=0;entryX=1.013;entryY=0.664;entryDx=0;entryDy=0;entryPerimeter=0;" edge="1" parent="1">
          <mxGeometry width="50" height="50" relative="1" as="geometry">
            <mxPoint x="998.44" y="894.7" as="sourcePoint" />
            <mxPoint x="520.0000000000002" y="894.5800000000002" as="targetPoint" />
          </mxGeometry>
        </mxCell>
        <mxCell id="eEHk1LXyHGOw7zRqDb_v-46" value="Подтверждение операции" style="text;html=1;align=center;verticalAlign=middle;resizable=0;points=[];autosize=1;strokeColor=none;fillColor=none;" vertex="1" parent="1">
          <mxGeometry x="541" y="869" width="170" height="30" as="geometry" />
        </mxCell>
        <mxCell id="eEHk1LXyHGOw7zRqDb_v-47" value="" style="endArrow=classic;html=1;rounded=0;exitX=1.003;exitY=0.176;exitDx=0;exitDy=0;exitPerimeter=0;" edge="1" parent="1">
          <mxGeometry width="50" height="50" relative="1" as="geometry">
            <mxPoint x="520" y="932" as="sourcePoint" />
            <mxPoint x="750" y="930" as="targetPoint" />
          </mxGeometry>
        </mxCell>
        <mxCell id="eEHk1LXyHGOw7zRqDb_v-48" value="сохранение данных по ключу" style="text;html=1;align=center;verticalAlign=middle;resizable=0;points=[];autosize=1;strokeColor=none;fillColor=none;" vertex="1" parent="1">
          <mxGeometry x="530" y="900" width="190" height="30" as="geometry" />
        </mxCell>
        <mxCell id="eEHk1LXyHGOw7zRqDb_v-49" value="" style="endArrow=classic;html=1;rounded=0;" edge="1" parent="1">
          <mxGeometry width="50" height="50" relative="1" as="geometry">
            <mxPoint x="400" y="972" as="sourcePoint" />
            <mxPoint x="170" y="972" as="targetPoint" />
          </mxGeometry>
        </mxCell>
        <mxCell id="eEHk1LXyHGOw7zRqDb_v-52" value="" style="endArrow=classic;html=1;rounded=0;entryX=1.022;entryY=0.886;entryDx=0;entryDy=0;entryPerimeter=0;" edge="1" parent="1" target="eEHk1LXyHGOw7zRqDb_v-38">
          <mxGeometry width="50" height="50" relative="1" as="geometry">
            <mxPoint x="750" y="961" as="sourcePoint" />
            <mxPoint x="760" y="950" as="targetPoint" />
          </mxGeometry>
        </mxCell>
        <mxCell id="eEHk1LXyHGOw7zRqDb_v-54" value="Подтверждение операции" style="text;html=1;align=center;verticalAlign=middle;resizable=0;points=[];autosize=1;strokeColor=none;fillColor=none;" vertex="1" parent="1">
          <mxGeometry x="541" y="940" width="170" height="30" as="geometry" />
        </mxCell>
        <mxCell id="eEHk1LXyHGOw7zRqDb_v-55" value="Подтверждение операции" style="text;html=1;align=center;verticalAlign=middle;resizable=0;points=[];autosize=1;strokeColor=none;fillColor=none;" vertex="1" parent="1">
          <mxGeometry x="200" y="940" width="170" height="30" as="geometry" />
        </mxCell>
      </root>
    </mxGraphModel>
  </diagram>
</mxfile>
